<svg id="Layer_1" data-name="Layer 1" xmlns="http://www.w3.org/2000/svg" viewBox="0 0 194.976 61.997"><defs><style>.cls-1{fill:#c069c2;}.cls-2{fill:#fff;}</style></defs><title>logo</title><path class="cls-1" d="M29.71,18.128a3.427,3.427,0,0,1-2.76-1.26,6.28,6.28,0,0,0,2.7-5.16c0-2.1-1.14-4.02-4.439-4.02s-5.52,1.86-5.52,5.459c0,8.82,13.5,10.02,13.5,22.979,0,10.08-8.16,15-16.859,15-6.84,0-12.719-3-12.719-10.319,0-6.48,4.62-9.84,8.819-9.84,2.1,0,5.1.84,5.28,3.96-3.24,0-7.02,1.5-7.02,5.64a5.471,5.471,0,0,0,5.76,5.76c4.02,0,6.959-2.939,6.959-7.979,0-10.26-12.3-13.919-12.3-22.739,0-6.24,6.12-10.739,13.859-10.739,2.82,0,9.66.6,9.66,7.2C34.63,15.548,32.71,18.128,29.71,18.128Z" transform="translate(-2.612 -2.869)"/><path class="cls-1" d="M59.47,28.928a1.412,1.412,0,0,0,.66.12c2.76,0,6.66-1.8,9.24-3.6l0.54,1.62c-2.28,2.459-6.24,4.26-10.62,4.979-0.96,11.1-6.96,18.06-14.339,18.06-5.58,0-9.6-2.64-9.6-9.48,0-6.9,4.08-21.3,16.439-21.3C56.951,19.328,59.47,22.628,59.47,28.928Zm-5.16,3.3c-1.26-.3-1.62-1.32-1.62-2.52a3.3,3.3,0,0,1,1.86-3.24c-0.12-2.52-.72-3.48-2.28-3.48-4.26,0-7.98,10.979-7.98,16.859,0,3.96.78,4.86,3.06,4.86C50.291,44.707,53.351,39.307,54.311,32.228Z" transform="translate(-2.612 -2.869)"/><path class="cls-1" d="M77.651,25.088c-2.16,0-3.78,2.52-4.68,5.52l-4.08,19.259h-8.64l6.359-30h8.64l-0.66,3.12a8.915,8.915,0,0,1,7.02-3.36c3.84,0,6.66,1.98,6.66,6.78,0,4.86-2.88,12.12-2.88,15.479,0,1.5.6,2.52,2.4,2.52,2.64,0,3.72-2.16,5.04-5.28h2.52c-3.36,9.84-7.98,11.1-11.16,11.1-5.22,0-7.08-3.36-7.08-6.78,0-4.08,2.7-11.459,2.7-15.3C79.811,26.168,79.09,25.088,77.651,25.088Z" transform="translate(-2.612 -2.869)"/><path class="cls-1" d="M121.63,19.868L115.69,47.707c3.659-1.32,5.88-3.359,7.56-8.58h2.52c-2.34,7.92-6.9,10.2-10.619,11.22l-0.9,4.32c-1.8,8.58-6.84,10.2-10.8,10.2-3.66,0-6.72-1.92-6.72-5.819,0-5.04,5.28-7.56,9.78-8.939l0.72-3.18a9.637,9.637,0,0,1-7.2,3.3c-4.08,0-7.98-2.52-7.98-9.66,0-8.1,4.979-21,15.42-21,3.42,0,4.859,1.32,4.859,3.06v0.36l0.66-3.12h8.64ZM102.07,60.186c1.261,0,2.7-1.8,3.48-5.339l0.359-1.74c-3.06,1.14-5.879,2.7-5.879,5.1A2.043,2.043,0,0,0,102.07,60.186Zm-1.14-20.459c0,4.62,1.92,4.68,3,4.68,1.62,0,3.96-1.62,4.8-4.68l3.06-14.219a2.365,2.365,0,0,0-2.46-2.22C104.23,23.288,100.93,34.087,100.93,39.727Z" transform="translate(-2.612 -2.869)"/><path class="cls-1" d="M135.97,19.868l-0.78,3.72c2.1-1.8,4.38-3.72,7.26-3.72,2.7,0,4.14,2.22,4.14,4.5a4.193,4.193,0,0,1-4.319,4.38c-3.36,0-1.681-3.96-3.48-3.96s-2.88.9-4.38,2.28l-4.8,22.8h-8.64l6.36-30h8.64Z" transform="translate(-2.612 -2.869)"/><path class="cls-1" d="M158.229,45.187c4.739,0,7.619-2.64,10.619-6.06h2.04c-3.42,5.52-8.52,11.1-16.5,11.1-5.641,0-9.36-2.76-9.36-9.54,0-6.9,3.9-21.359,16.2-21.359,5.34,0,6.6,2.76,6.6,5.76,0,6.9-6.6,12.239-13.8,12.659-0.061.84-.12,1.68-0.12,2.4C153.909,44.227,155.35,45.187,158.229,45.187Zm3.479-22.679c-3.06,0-6,6.42-7.2,12.359,4.62-.3,8.7-4.919,8.7-9.9C163.209,23.468,162.849,22.508,161.709,22.508Z" transform="translate(-2.612 -2.869)"/><path class="cls-1" d="M197.588,19.868l-9.12,42.839-9.06,2.159,3.78-17.939a9.606,9.606,0,0,1-7.14,3.3c-4.08,0-7.98-2.52-7.98-9.66,0-8.1,4.98-21,15.42-21,3.42,0,4.859,1.32,4.859,3.18l0.6-2.88h8.64Zm-20.64,19.859c0,4.62,1.92,4.68,3,4.68,1.56,0,3.72-1.44,4.68-4.26l3.18-14.819a2.386,2.386,0,0,0-2.46-2.04C180.248,23.288,176.948,34.087,176.948,39.727Z" transform="translate(-2.612 -2.869)"/><path class="cls-2" d="M28.71,16.128a3.427,3.427,0,0,1-2.76-1.26,6.28,6.28,0,0,0,2.7-5.16c0-2.1-1.14-4.02-4.439-4.02s-5.52,1.86-5.52,5.459c0,8.82,13.5,10.02,13.5,22.979,0,10.08-8.16,15-16.859,15-6.84,0-12.719-3-12.719-10.319,0-6.48,4.62-9.84,8.819-9.84,2.1,0,5.1.84,5.28,3.96-3.24,0-7.02,1.5-7.02,5.64a5.471,5.471,0,0,0,5.76,5.76c4.02,0,6.959-2.939,6.959-7.979,0-10.26-12.3-13.919-12.3-22.739,0-6.24,6.12-10.739,13.859-10.739,2.82,0,9.66.6,9.66,7.2C33.63,13.548,31.71,16.128,28.71,16.128Z" transform="translate(-2.612 -2.869)"/><path class="cls-2" d="M58.47,26.928a1.412,1.412,0,0,0,.66.12c2.76,0,6.66-1.8,9.24-3.6l0.54,1.62c-2.28,2.459-6.24,4.26-10.62,4.979-0.96,11.1-6.96,18.06-14.339,18.06-5.58,0-9.6-2.64-9.6-9.48,0-6.9,4.08-21.3,16.439-21.3C55.951,17.328,58.47,20.628,58.47,26.928Zm-5.16,3.3c-1.26-.3-1.62-1.32-1.62-2.52a3.3,3.3,0,0,1,1.86-3.24c-0.12-2.52-.72-3.48-2.28-3.48-4.26,0-7.98,10.979-7.98,16.859,0,3.96.78,4.86,3.06,4.86C49.291,42.707,52.351,37.307,53.311,30.228Z" transform="translate(-2.612 -2.869)"/><path class="cls-2" d="M76.651,23.088c-2.16,0-3.78,2.52-4.68,5.52l-4.08,19.259h-8.64l6.359-30h8.64l-0.66,3.12a8.915,8.915,0,0,1,7.02-3.36c3.84,0,6.66,1.98,6.66,6.78,0,4.86-2.88,12.12-2.88,15.479,0,1.5.6,2.52,2.4,2.52,2.64,0,3.72-2.16,5.04-5.28h2.52c-3.36,9.84-7.98,11.1-11.16,11.1-5.22,0-7.08-3.36-7.08-6.78,0-4.08,2.7-11.459,2.7-15.3C78.811,24.168,78.09,23.088,76.651,23.088Z" transform="translate(-2.612 -2.869)"/><path class="cls-2" d="M120.63,17.868L114.69,45.707c3.659-1.32,5.88-3.359,7.56-8.58h2.52c-2.34,7.92-6.9,10.2-10.619,11.22l-0.9,4.32c-1.8,8.58-6.84,10.2-10.8,10.2-3.66,0-6.72-1.92-6.72-5.819,0-5.04,5.28-7.56,9.78-8.939l0.72-3.18a9.637,9.637,0,0,1-7.2,3.3c-4.08,0-7.98-2.52-7.98-9.66,0-8.1,4.979-21,15.42-21,3.42,0,4.859,1.32,4.859,3.06v0.36l0.66-3.12h8.64ZM101.07,58.186c1.261,0,2.7-1.8,3.48-5.339l0.359-1.74c-3.06,1.14-5.879,2.7-5.879,5.1A2.043,2.043,0,0,0,101.07,58.186ZM99.93,37.727c0,4.62,1.92,4.68,3,4.68,1.62,0,3.96-1.62,4.8-4.68l3.06-14.219a2.365,2.365,0,0,0-2.46-2.22C103.23,21.288,99.93,32.087,99.93,37.727Z" transform="translate(-2.612 -2.869)"/><path class="cls-2" d="M134.97,17.868l-0.78,3.72c2.1-1.8,4.38-3.72,7.26-3.72,2.7,0,4.14,2.22,4.14,4.5a4.193,4.193,0,0,1-4.319,4.38c-3.36,0-1.681-3.96-3.48-3.96s-2.88.9-4.38,2.28l-4.8,22.8h-8.64l6.36-30h8.64Z" transform="translate(-2.612 -2.869)"/><path class="cls-2" d="M157.229,43.187c4.739,0,7.619-2.64,10.619-6.06h2.04c-3.42,5.52-8.52,11.1-16.5,11.1-5.641,0-9.36-2.76-9.36-9.54,0-6.9,3.9-21.359,16.2-21.359,5.34,0,6.6,2.76,6.6,5.76,0,6.9-6.6,12.239-13.8,12.659-0.061.84-.12,1.68-0.12,2.4C152.909,42.227,154.35,43.187,157.229,43.187Zm3.479-22.679c-3.06,0-6,6.42-7.2,12.359,4.62-.3,8.7-4.919,8.7-9.9C162.209,21.468,161.849,20.508,160.709,20.508Z" transform="translate(-2.612 -2.869)"/><path class="cls-2" d="M196.588,17.868l-9.12,42.839-9.06,2.159,3.78-17.939a9.606,9.606,0,0,1-7.14,3.3c-4.08,0-7.98-2.52-7.98-9.66,0-8.1,4.98-21,15.42-21,3.42,0,4.859,1.32,4.859,3.18l0.6-2.88h8.64Zm-20.64,19.859c0,4.62,1.92,4.68,3,4.68,1.56,0,3.72-1.44,4.68-4.26l3.18-14.819a2.386,2.386,0,0,0-2.46-2.04C179.248,21.288,175.948,32.087,175.948,37.727Z" transform="translate(-2.612 -2.869)"/></svg>