<?xml version="1.0" encoding="utf-8"?>
<!-- Generator: Adobe Illustrator 19.2.1, SVG Export Plug-In . SVG Version: 6.00 Build 0)  -->
<svg version="1.1" id="Layer_1" xmlns="http://www.w3.org/2000/svg" xmlns:xlink="http://www.w3.org/1999/xlink" x="0px" y="0px"
	 viewBox="0 0 200 79.432" style="enable-background:new 0 0 200 79.432;" xml:space="preserve">
<style type="text/css">
	.st0{fill:none;}
	.st1{fill:#2B992B;}
</style>
<g>
	<rect x="1.278" y="7.049" class="st0" width="198.722" height="129.783"/>
	<path class="st1" d="M28.497,10.213l-5.112,24.05c7.272-0.576,12.601-10.009,12.601-17.713c0-5.329-2.592-9.793-8.929-9.793
		c-11.665,0-18.65,6.553-18.65,17.498c0,3.672,0.936,4.249,1.008,4.896c-4.968,0-7.705-1.8-7.705-6.985
		c0-9.577,13.249-18.722,25.274-18.722c11.809,0,16.994,6.769,16.994,14.186c0,9.145-7.849,19.297-20.81,19.297h-0.36l-4.392,20.522
		H8.047l9.793-45.796L28.497,10.213z"/>
	<path class="st1" d="M77.097,21.446l-5.185,24.482c-0.216,0.936-0.288,1.656-0.288,2.304c0,2.016,0.936,3.096,2.953,3.096
		c2.808,0,4.752-3.168,5.833-6.769h3.024C79.33,56.297,72.849,57.881,68.96,57.881c-4.032,0-6.625-2.304-7.057-6.625
		c-2.232,3.312-5.616,6.625-10.729,6.625c-4.896,0-9.577-3.024-9.577-11.593c0-9.721,5.977-25.202,18.505-25.202
		c4.104,0,5.833,1.584,5.833,3.672v0.504l0.792-3.816H77.097z M52.255,45.28c0,5.544,2.304,5.616,3.601,5.616
		c2.088,0,5.112-2.16,5.977-6.336l3.456-16.273c0-0.864-0.648-2.736-2.952-2.736C56.215,25.55,52.255,38.512,52.255,45.28z"/>
	<path class="st1" d="M95.67,21.446l-0.936,4.464c2.521-2.16,5.257-4.464,8.713-4.464c3.24,0,4.969,2.664,4.969,5.4
		c0,2.52-1.656,5.256-5.185,5.256c-4.033,0-2.017-4.752-4.177-4.752s-3.456,1.08-5.256,2.736l-5.76,27.362H77.669l7.633-36.003
		H95.67z"/>
	<path class="st1" d="M125.19,10.069l-2.448,11.377h4.32l-0.576,2.88h-4.32l-4.608,21.602c-0.216,0.936-0.288,1.656-0.288,2.304
		c0,2.016,0.936,2.664,2.952,2.664c2.809,0,5.4-2.736,6.48-6.336h3.024c-4.104,11.737-11.233,13.321-15.121,13.321
		c-4.32,0-7.705-2.592-7.705-8.641c0-1.368,0.216-2.953,0.576-4.681l4.32-20.234h-2.376l0.576-2.88h2.376l2.16-9.937L125.19,10.069z
		"/>
	<path class="st1" d="M141.966,21.446l-5.185,24.482c-0.216,0.936-0.288,1.656-0.288,2.304c0,2.016,0.936,2.664,2.952,2.664
		c2.809,0,5.4-2.736,6.48-6.336h3.024c-4.104,11.737-11.233,13.321-15.121,13.321c-4.32,0-7.705-2.592-7.705-8.641
		c0-1.368,0.216-2.953,0.576-4.681l4.896-23.114H141.966z M138.726,6.109c3.168,0,5.76,2.592,5.76,5.76
		c0,3.168-2.592,5.688-5.76,5.688c-3.169,0-5.688-2.52-5.688-5.688C133.037,8.701,135.557,6.109,138.726,6.109z"/>
	<path class="st1" d="M170.046,14.246c0.072-0.72,0.144-1.296,0.144-1.944c0-1.656-1.296-2.448-2.735-2.448
		c-1.585,0-4.033,1.08-5.041,5.905l-1.224,5.688h5.256l-0.504,2.88h-5.328l-8.281,38.884c-2.16,10.297-8.137,12.241-12.889,12.241
		c-4.393,0-8.497-3.096-8.497-7.776c0-6.625,5.545-8.713,12.386-10.801l8.712-41.115c2.16-10.297,8.354-12.241,13.105-12.241
		c4.393,0,8.497,3.096,8.497,7.777c0,1.152-0.072,2.088-0.216,2.952H170.046z M137.787,69.042c1.512,0,3.168-1.368,4.104-5.616
		l0.936-4.176c-4.536,1.512-7.92,3.528-7.92,7.417C134.907,67.674,136.203,69.042,137.787,69.042z"/>
	<path class="st1" d="M180.413,21.446l-5.185,24.482c-0.145,0.576-0.216,1.224-0.216,1.8c0,1.656,0.504,3.168,2.16,3.168
		c2.808,0,4.68-2.736,5.76-6.336l4.896-23.114h10.441l-8.785,41.764c-2.16,10.297-8.353,12.241-13.104,12.241
		c-4.393,0-8.497-3.096-8.497-7.776c0-6.697,5.616-8.785,12.457-10.801l0.72-3.168c-3.096,3.528-6.336,4.176-8.784,4.176
		c-4.32,0-7.705-2.592-7.705-8.641c0-1.368,0.216-2.953,0.576-4.681l4.896-23.114H180.413z M174.725,69.042
		c1.439,0,3.312-1.368,4.248-5.616l0.864-4.249c-4.536,1.512-7.993,3.601-7.993,7.489C171.844,67.674,173.141,69.042,174.725,69.042
		z"/>
</g>
<g>
</g>
<g>
</g>
<g>
</g>
<g>
</g>
<g>
</g>
<g>
</g>
<g>
</g>
<g>
</g>
<g>
</g>
<g>
</g>
<g>
</g>
<g>
</g>
<g>
</g>
<g>
</g>
<g>
</g>
</svg>
