<?xml version="1.0" encoding="utf-8"?>
<!-- Generator: Adobe Illustrator 19.2.1, SVG Export Plug-In . SVG Version: 6.00 Build 0)  -->
<svg version="1.1" id="Layer_1" xmlns="http://www.w3.org/2000/svg" xmlns:xlink="http://www.w3.org/1999/xlink" x="0px" y="0px"
	 viewBox="0 0 200 63.861" style="enable-background:new 0 0 200 63.861;" xml:space="preserve">
<style type="text/css">
	.st0{fill:none;}
	.st1{fill:#6DC82C;}
</style>
<g>
	<rect y="4.634" class="st0" width="200" height="78.798"/>
	<path class="st1" d="M29.71,14.895c-1.08,0-1.98-0.36-2.76-1.26c1.62-0.96,2.7-3.18,2.7-5.16c0-2.1-1.14-4.02-4.439-4.02
		s-5.52,1.86-5.52,5.459c0,8.82,13.5,10.02,13.5,22.979c0,10.08-8.16,14.999-16.859,14.999c-6.84,0-12.719-2.999-12.719-10.319
		c0-6.48,4.62-9.84,8.819-9.84c2.1,0,5.1,0.84,5.28,3.96c-3.24,0-7.02,1.5-7.02,5.64c0,3,1.92,5.76,5.76,5.76
		c4.02,0,6.959-2.939,6.959-7.979c0-10.26-12.299-13.919-12.299-22.739c0-6.24,6.12-10.739,13.859-10.739c2.82,0,9.66,0.6,9.66,7.2
		C34.63,12.315,32.71,14.895,29.71,14.895z"/>
	<path class="st1" d="M59.471,25.695c0.24,0.12,0.479,0.12,0.66,0.12c2.76,0,6.66-1.8,9.24-3.6l0.54,1.62
		c-2.28,2.459-6.24,4.26-10.62,4.979c-0.96,11.1-6.96,18.06-14.339,18.06c-5.58,0-9.6-2.64-9.6-9.479
		c0-6.9,4.08-21.299,16.439-21.299C56.951,16.095,59.471,19.395,59.471,25.695z M54.311,28.995c-1.26-0.3-1.62-1.32-1.62-2.52
		c0-1.68,0.78-2.76,1.86-3.24c-0.12-2.52-0.72-3.48-2.28-3.48c-4.26,0-7.979,10.979-7.979,16.859c0,3.96,0.78,4.86,3.06,4.86
		C50.291,41.475,53.351,36.074,54.311,28.995z"/>
	<path class="st1" d="M77.65,21.855c-2.16,0-3.78,2.52-4.68,5.52l-4.08,19.259h-8.64l6.36-29.999h8.64l-0.66,3.12
		c2.52-2.88,5.16-3.36,7.02-3.36c3.84,0,6.66,1.98,6.66,6.78c0,4.86-2.88,12.12-2.88,15.479c0,1.5,0.6,2.52,2.4,2.52
		c2.64,0,3.72-2.16,5.04-5.28h2.52c-3.36,9.839-7.98,11.1-11.16,11.1c-5.22,0-7.08-3.36-7.08-6.78c0-4.079,2.7-11.459,2.7-15.299
		C79.811,22.935,79.091,21.855,77.65,21.855z"/>
	<path class="st1" d="M121.629,16.635l-5.939,27.839c3.66-1.319,5.88-3.359,7.56-8.58h2.521c-2.34,7.92-6.9,10.2-10.62,11.219
		l-0.899,4.32c-1.8,8.58-6.84,10.199-10.8,10.199c-3.66,0-6.72-1.92-6.72-5.819c0-5.04,5.279-7.56,9.779-8.939l0.721-3.181
		c-1.74,1.86-4.08,3.301-7.2,3.301c-4.08,0-7.979-2.521-7.979-9.66c0-8.1,4.979-20.999,15.419-20.999c3.42,0,4.86,1.32,4.86,3.06
		v0.36l0.66-3.12H121.629z M102.07,56.953c1.26,0,2.7-1.8,3.479-5.34l0.36-1.739c-3.06,1.14-5.88,2.699-5.88,5.1
		C100.03,55.813,100.75,56.953,102.07,56.953z M100.931,36.494c0,4.62,1.92,4.68,2.999,4.68c1.62,0,3.96-1.619,4.8-4.68
		l3.061-14.219c-0.061-0.66-0.54-2.22-2.46-2.22C104.23,20.055,100.931,30.854,100.931,36.494z"/>
	<path class="st1" d="M135.97,16.635l-0.78,3.72c2.1-1.8,4.38-3.72,7.26-3.72c2.7,0,4.14,2.22,4.14,4.5c0,2.1-1.38,4.38-4.319,4.38
		c-3.36,0-1.681-3.96-3.48-3.96s-2.88,0.9-4.38,2.28l-4.8,22.799h-8.64l6.36-29.999H135.97z"/>
	<path class="st1" d="M158.229,41.954c4.739,0,7.619-2.64,10.619-6.06h2.04c-3.42,5.52-8.52,11.1-16.499,11.1
		c-5.641,0-9.36-2.76-9.36-9.54c0-6.899,3.9-21.359,16.199-21.359c5.34,0,6.601,2.76,6.601,5.76c0,6.899-6.601,12.239-13.8,12.659
		c-0.061,0.84-0.12,1.68-0.12,2.4C153.909,40.994,155.35,41.954,158.229,41.954z M161.709,19.275c-3.06,0-6,6.42-7.2,12.359
		c4.62-0.3,8.7-4.919,8.7-9.899C163.209,20.235,162.849,19.275,161.709,19.275z"/>
	<path class="st1" d="M197.588,16.635l-9.12,42.839l-9.06,2.159l3.78-17.939c-1.74,1.86-4.08,3.301-7.14,3.301
		c-4.08,0-7.98-2.521-7.98-9.66c0-8.1,4.98-20.999,15.42-20.999c3.42,0,4.859,1.32,4.859,3.18l0.601-2.88H197.588z M176.948,36.494
		c0,4.62,1.92,4.68,3,4.68c1.56,0,3.72-1.439,4.68-4.26l3.18-14.819c-0.12-0.72-0.72-2.04-2.46-2.04
		C180.248,20.055,176.948,30.854,176.948,36.494z"/>
</g>
</svg>
