<svg id="Layer_1" data-name="Layer 1" xmlns="http://www.w3.org/2000/svg" viewBox="0 0 195.98 61"><defs><style>.cls-1{fill:#2ebd59;}</style></defs><title>logo</title><path class="cls-1" d="M30.72,15.26A3.43,3.43,0,0,1,28,14a6.28,6.28,0,0,0,2.7-5.16c0-2.1-1.14-4-4.44-4S20.7,6.68,20.7,10.28c0,8.82,13.5,10,13.5,23,0,10.08-8.16,15-16.86,15-6.84,0-12.72-3-12.72-10.32,0-6.48,4.62-9.84,8.82-9.84,2.1,0,5.1.84,5.28,4-3.24,0-7,1.5-7,5.64a5.47,5.47,0,0,0,5.76,5.76c4,0,7-2.94,7-8,0-10.26-12.3-13.92-12.3-22.74C12.12,6.5,18.24,2,26,2c2.82,0,9.66.6,9.66,7.2C35.64,12.68,33.72,15.26,30.72,15.26Z" transform="translate(-2.62 -1)"/><path class="cls-1" d="M60.48,26.06a1.41,1.41,0,0,0,.66.12c2.76,0,6.66-1.8,9.24-3.6l0.54,1.62c-2.28,2.46-6.24,4.26-10.62,5-1,11.1-7,18.06-14.34,18.06-5.58,0-9.6-2.64-9.6-9.48s4.08-21.3,16.44-21.3C58,16.46,60.48,19.76,60.48,26.06Zm-5.16,3.3c-1.26-.3-1.62-1.32-1.62-2.52a3.29,3.29,0,0,1,1.86-3.24c-0.12-2.52-.72-3.48-2.28-3.48-4.26,0-8,11-8,16.86,0,4,.78,4.86,3.06,4.86C51.3,41.84,54.36,36.44,55.32,29.36Z" transform="translate(-2.62 -1)"/><path class="cls-1" d="M78.66,22.22c-2.16,0-3.78,2.52-4.68,5.52L69.9,47H61.26l6.36-30h8.64L75.6,20.12a8.92,8.92,0,0,1,7-3.36c3.84,0,6.66,2,6.66,6.78S86.4,35.66,86.4,39c0,1.5.6,2.52,2.4,2.52,2.64,0,3.72-2.16,5-5.28h2.52c-3.36,9.84-8,11.1-11.16,11.1-5.22,0-7.08-3.36-7.08-6.78,0-4.08,2.7-11.46,2.7-15.3C80.82,23.3,80.1,22.22,78.66,22.22Z" transform="translate(-2.62 -1)"/><path class="cls-1" d="M122.64,17L116.7,44.84c3.66-1.32,5.88-3.36,7.56-8.58h2.52c-2.34,7.92-6.9,10.2-10.62,11.22l-0.9,4.32c-1.8,8.58-6.84,10.2-10.8,10.2-3.66,0-6.72-1.92-6.72-5.82,0-5,5.28-7.56,9.78-8.94l0.72-3.18a9.64,9.64,0,0,1-7.2,3.3c-4.08,0-8-2.52-8-9.66,0-8.1,5-21,15.42-21,3.42,0,4.86,1.32,4.86,3.06v0.36L114,17h8.64ZM103.08,57.32c1.26,0,2.7-1.8,3.48-5.34l0.36-1.74c-3.06,1.14-5.88,2.7-5.88,5.1A2,2,0,0,0,103.08,57.32Zm-1.14-20.46c0,4.62,1.92,4.68,3,4.68,1.62,0,4-1.62,4.8-4.68l3.06-14.22a2.36,2.36,0,0,0-2.46-2.22C105.24,20.42,101.94,31.22,101.94,36.86Z" transform="translate(-2.62 -1)"/><path class="cls-1" d="M137,17l-0.78,3.72c2.1-1.8,4.38-3.72,7.26-3.72,2.7,0,4.14,2.22,4.14,4.5a4.19,4.19,0,0,1-4.32,4.38c-3.36,0-1.68-4-3.48-4s-2.88.9-4.38,2.28L130.62,47H122l6.36-30H137Z" transform="translate(-2.62 -1)"/><path class="cls-1" d="M159.24,42.32c4.74,0,7.62-2.64,10.62-6.06h2c-3.42,5.52-8.52,11.1-16.5,11.1-5.64,0-9.36-2.76-9.36-9.54s3.9-21.36,16.2-21.36c5.34,0,6.6,2.76,6.6,5.76,0,6.9-6.6,12.24-13.8,12.66-0.06.84-.12,1.68-0.12,2.4C154.92,41.36,156.36,42.32,159.24,42.32Zm3.48-22.68c-3.06,0-6,6.42-7.2,12.36,4.62-.3,8.7-4.92,8.7-9.9C164.22,20.6,163.86,19.64,162.72,19.64Z" transform="translate(-2.62 -1)"/><path class="cls-1" d="M198.6,17l-9.12,42.84L180.42,62l3.78-17.94a9.61,9.61,0,0,1-7.14,3.3c-4.08,0-8-2.52-8-9.66,0-8.1,5-21,15.42-21,3.42,0,4.86,1.32,4.86,3.18L190,17h8.64ZM178,36.86c0,4.62,1.92,4.68,3,4.68,1.56,0,3.72-1.44,4.68-4.26l3.18-14.82a2.39,2.39,0,0,0-2.46-2C181.26,20.42,178,31.22,178,36.86Z" transform="translate(-2.62 -1)"/><path d="M28.72,14.26A3.43,3.43,0,0,1,26,13a6.28,6.28,0,0,0,2.7-5.16c0-2.1-1.14-4-4.44-4S18.7,5.68,18.7,9.28c0,8.82,13.5,10,13.5,23,0,10.08-8.16,15-16.86,15-6.84,0-12.72-3-12.72-10.32,0-6.48,4.62-9.84,8.82-9.84,2.1,0,5.1.84,5.28,4-3.24,0-7,1.5-7,5.64a5.47,5.47,0,0,0,5.76,5.76c4,0,7-2.94,7-8,0-10.26-12.3-13.92-12.3-22.74C10.12,5.5,16.24,1,24,1c2.82,0,9.66.6,9.66,7.2C33.64,11.68,31.72,14.26,28.72,14.26Z" transform="translate(-2.62 -1)"/><path d="M58.48,25.06a1.41,1.41,0,0,0,.66.12c2.76,0,6.66-1.8,9.24-3.6l0.54,1.62c-2.28,2.46-6.24,4.26-10.62,5-1,11.1-7,18.06-14.34,18.06-5.58,0-9.6-2.64-9.6-9.48s4.08-21.3,16.44-21.3C56,15.46,58.48,18.76,58.48,25.06Zm-5.16,3.3c-1.26-.3-1.62-1.32-1.62-2.52a3.29,3.29,0,0,1,1.86-3.24c-0.12-2.52-.72-3.48-2.28-3.48-4.26,0-8,11-8,16.86,0,4,.78,4.86,3.06,4.86C49.3,40.84,52.36,35.44,53.32,28.36Z" transform="translate(-2.62 -1)"/><path d="M76.66,21.22c-2.16,0-3.78,2.52-4.68,5.52L67.9,46H59.26l6.36-30h8.64L73.6,19.12a8.92,8.92,0,0,1,7-3.36c3.84,0,6.66,2,6.66,6.78S84.4,34.66,84.4,38c0,1.5.6,2.52,2.4,2.52,2.64,0,3.72-2.16,5-5.28h2.52c-3.36,9.84-8,11.1-11.16,11.1-5.22,0-7.08-3.36-7.08-6.78,0-4.08,2.7-11.46,2.7-15.3C78.82,22.3,78.1,21.22,76.66,21.22Z" transform="translate(-2.62 -1)"/><path d="M120.64,16L114.7,43.84c3.66-1.32,5.88-3.36,7.56-8.58h2.52c-2.34,7.92-6.9,10.2-10.62,11.22l-0.9,4.32c-1.8,8.58-6.84,10.2-10.8,10.2-3.66,0-6.72-1.92-6.72-5.82,0-5,5.28-7.56,9.78-8.94l0.72-3.18a9.64,9.64,0,0,1-7.2,3.3c-4.08,0-8-2.52-8-9.66,0-8.1,5-21,15.42-21,3.42,0,4.86,1.32,4.86,3.06v0.36L112,16h8.64ZM101.08,56.32c1.26,0,2.7-1.8,3.48-5.34l0.36-1.74c-3.06,1.14-5.88,2.7-5.88,5.1A2,2,0,0,0,101.08,56.32ZM99.94,35.86c0,4.62,1.92,4.68,3,4.68,1.62,0,4-1.62,4.8-4.68l3.06-14.22a2.36,2.36,0,0,0-2.46-2.22C103.24,19.42,99.94,30.22,99.94,35.86Z" transform="translate(-2.62 -1)"/><path d="M135,16l-0.78,3.72c2.1-1.8,4.38-3.72,7.26-3.72,2.7,0,4.14,2.22,4.14,4.5a4.19,4.19,0,0,1-4.32,4.38c-3.36,0-1.68-4-3.48-4s-2.88.9-4.38,2.28L128.62,46H120l6.36-30H135Z" transform="translate(-2.62 -1)"/><path d="M157.24,41.32c4.74,0,7.62-2.64,10.62-6.06h2c-3.42,5.52-8.52,11.1-16.5,11.1-5.64,0-9.36-2.76-9.36-9.54s3.9-21.36,16.2-21.36c5.34,0,6.6,2.76,6.6,5.76,0,6.9-6.6,12.24-13.8,12.66-0.06.84-.12,1.68-0.12,2.4C152.92,40.36,154.36,41.32,157.24,41.32Zm3.48-22.68c-3.06,0-6,6.42-7.2,12.36,4.62-.3,8.7-4.92,8.7-9.9C162.22,19.6,161.86,18.64,160.72,18.64Z" transform="translate(-2.62 -1)"/><path d="M196.6,16l-9.12,42.84L178.42,61l3.78-17.94a9.61,9.61,0,0,1-7.14,3.3c-4.08,0-8-2.52-8-9.66,0-8.1,5-21,15.42-21,3.42,0,4.86,1.32,4.86,3.18L188,16h8.64ZM176,35.86c0,4.62,1.92,4.68,3,4.68,1.56,0,3.72-1.44,4.68-4.26l3.18-14.82a2.39,2.39,0,0,0-2.46-2C179.26,19.42,176,30.22,176,35.86Z" transform="translate(-2.62 -1)"/></svg>